# Blender v2.93.5 OBJ File: ''
# www.blender.org
mtllib untitled.mtl
o chair_01
v -0.696592 1.381172 0.773984
v 0.696592 1.381172 0.773984
v 0.696592 1.489904 0.773984
v -0.696592 1.489904 0.773984
v 0.531044 1.381172 -0.795600
v -0.531044 1.381172 -0.795600
v -0.531044 1.489904 -0.795600
v 0.531044 1.489904 -0.795600
v 0.773984 1.381172 0.696596
v 0.755436 1.381172 -0.541812
v 0.755436 1.489904 -0.541812
v 0.773984 1.489904 0.696596
v -0.755436 1.381172 -0.541812
v -0.773984 1.381172 0.696596
v -0.773984 1.489904 0.696596
v -0.755436 1.489904 -0.541812
v 0.636316 1.489904 -0.742880
v 0.636316 1.381172 -0.742880
v 0.718508 1.489904 -0.657900
v 0.718508 1.381172 -0.657900
v -0.718508 1.489904 -0.657900
v -0.718508 1.381172 -0.657900
v -0.636316 1.489904 -0.742880
v -0.636316 1.381172 -0.742880
v 0.751316 1.381172 0.751316
v 0.751316 1.489904 0.751316
v -0.751316 1.381172 0.751316
v -0.751316 1.489904 0.751316
v -0.638216 0.565232 -0.662284
v -0.638216 1.102612 -0.625832
v -0.739384 1.102612 -0.625832
v -0.739384 0.565232 -0.662284
v -0.739384 0.565232 -0.806888
v -0.739384 1.102612 -0.783696
v -0.638216 1.102612 -0.783696
v -0.638216 0.565232 -0.806888
v -0.739384 0.000000 -0.743672
v -0.739384 0.000000 -0.858616
v -0.638216 0.000000 -0.858616
v -0.638216 0.000000 -0.743672
v -0.638216 1.627892 -0.811804
v -0.638216 1.627892 -0.651996
v -0.739384 1.627892 -0.651996
v -0.739384 1.627892 -0.811804
v -0.638216 3.429964 -0.982063
v -0.638216 3.429964 -0.887511
v -0.739384 3.429964 -0.887511
v -0.739384 3.429964 -0.982063
v -0.638216 -0.000000 0.722008
v -0.638216 1.388152 0.722008
v -0.739384 1.388152 0.722008
v -0.739384 -0.000000 0.722008
v -0.739384 -0.000000 0.607064
v -0.739384 1.388152 0.537320
v -0.638216 1.388152 0.537320
v -0.638216 -0.000000 0.607064
v -0.719028 1.275152 0.551476
v -0.719028 1.275152 -0.656824
v -0.667372 1.275152 -0.656824
v -0.667372 1.275152 0.551476
v -0.719028 1.390096 0.551476
v -0.719028 1.390096 -0.656824
v -0.667372 1.390096 0.551476
v -0.667372 1.390096 -0.656824
v 0.800968 3.523132 -0.999799
v 0.400484 3.519136 -1.036647
v 0.400484 3.532964 -0.909203
v 0.800968 3.536964 -0.872355
v 0.774260 3.377712 -0.979223
v 0.400484 3.373712 -1.016075
v 0.774260 3.391028 -0.856515
v 0.400484 3.387028 -0.893367
v -0.400484 3.387028 -0.893367
v -0.400484 3.532964 -0.909203
v -0.800968 3.536964 -0.872355
v -0.774260 3.391028 -0.856515
v -0.774260 3.377712 -0.979223
v -0.400484 3.373712 -1.016075
v -0.800968 3.523132 -0.999799
v -0.400484 3.519136 -1.036647
v 0.000000 3.385836 -0.904371
v 0.000000 3.531768 -0.920211
v 0.000000 3.372516 -1.027083
v 0.000000 3.517940 -1.047655
v 0.667536 1.275152 0.551476
v 0.667536 1.275152 -0.656824
v 0.719188 1.275152 -0.656824
v 0.719188 1.275152 0.551476
v 0.667536 1.390096 0.551476
v 0.667536 1.390096 -0.656824
v 0.719188 1.390096 0.551476
v 0.719188 1.390096 -0.656824
v 0.685568 1.775424 -0.769376
v 0.342784 1.771428 -0.806228
v 0.342784 1.781276 -0.715468
v 0.685568 1.785276 -0.678616
v 0.685568 1.638056 -0.754468
v 0.342784 1.634060 -0.791320
v 0.685568 1.647908 -0.663708
v 0.342784 1.643908 -0.700560
v -0.342784 1.643908 -0.700560
v -0.342784 1.781276 -0.715468
v -0.685568 1.785276 -0.678616
v -0.685568 1.647908 -0.663708
v -0.685568 1.638056 -0.754468
v -0.342784 1.634060 -0.791320
v -0.685568 1.775424 -0.769376
v -0.342784 1.771428 -0.806228
v 0.000000 1.642712 -0.711568
v 0.000000 1.780080 -0.726472
v 0.000000 1.632864 -0.802324
v 0.000000 1.770232 -0.817232
v -0.689276 1.275152 0.658196
v 0.689276 1.275152 0.658196
v 0.689276 1.275152 0.709848
v -0.689276 1.275152 0.709848
v -0.689276 1.390096 0.658196
v 0.689276 1.390096 0.658196
v -0.689276 1.390096 0.709848
v 0.689276 1.390096 0.709848
v 0.648824 1.275152 -0.682960
v -0.648824 1.275152 -0.682960
v -0.648824 1.275152 -0.734616
v 0.648824 1.275152 -0.734616
v 0.648824 1.390096 -0.682960
v -0.648824 1.390096 -0.682960
v 0.648824 1.390096 -0.734616
v -0.648824 1.390096 -0.734616
v 0.739396 0.565232 -0.662284
v 0.739396 1.102612 -0.625832
v 0.638232 1.102612 -0.625832
v 0.638232 0.565232 -0.662284
v 0.638232 0.565232 -0.806888
v 0.638232 1.102612 -0.783696
v 0.739396 1.102612 -0.783696
v 0.739396 0.565232 -0.806888
v 0.638232 0.000000 -0.743672
v 0.638232 0.000000 -0.858616
v 0.739396 0.000000 -0.858616
v 0.739396 0.000000 -0.743672
v 0.739396 1.627892 -0.811804
v 0.739396 1.627892 -0.651996
v 0.638232 1.627892 -0.651996
v 0.638232 1.627892 -0.811804
v 0.739396 3.429964 -0.982063
v 0.739396 3.429964 -0.887511
v 0.638232 3.429964 -0.887511
v 0.638232 3.429964 -0.982063
v 0.739396 -0.000000 0.722008
v 0.739396 1.388152 0.722008
v 0.638232 1.388152 0.722008
v 0.638232 -0.000000 0.722008
v 0.638232 -0.000000 0.607064
v 0.638232 1.388152 0.537320
v 0.739396 1.388152 0.537320
v 0.739396 -0.000000 0.607064
v 0.184684 1.768992 -0.801664
v 0.223828 3.396784 -1.018171
v 0.223828 3.396784 -0.944047
v 0.184684 1.769188 -0.736656
v -0.223828 3.396784 -0.944047
v -0.184684 1.769188 -0.736656
v -0.223828 3.396784 -1.018171
v -0.184684 1.768992 -0.801664
vt 0.964423 0.643817
vt 0.964423 0.359152
vt 0.986640 0.359152
vt 0.986640 0.643817
vt 0.927144 0.273015
vt 0.927144 0.056003
vt 0.949361 0.056003
vt 0.949361 0.273015
vt 0.964423 0.334947
vt 0.964423 0.081879
vt 0.986640 0.081879
vt 0.986640 0.334947
vt 0.964423 0.921089
vt 0.964423 0.668022
vt 0.986640 0.668022
vt 0.986640 0.921089
vt 0.949361 0.297072
vt 0.927144 0.297072
vt 0.964423 0.032832
vt 0.986639 0.032832
vt 0.986640 0.056989
vt 0.964423 0.056989
vt 0.986640 0.945980
vt 0.964423 0.945980
vt 0.986640 0.970136
vt 0.964423 0.970136
vt 0.927144 0.031947
vt 0.949361 0.031947
vt 0.964423 0.347049
vt 0.986640 0.347049
vt 0.964423 0.655919
vt 0.986640 0.656015
vt 0.662294 0.043311
vt 0.669839 0.067030
vt 0.361128 0.067030
vt 0.368673 0.043311
vt 0.334227 0.320069
vt 0.329595 0.331251
vt 0.022567 0.331250
vt 0.017936 0.320069
vt 0.330437 0.067030
vt 0.021726 0.067030
vt 0.318413 0.335882
vt 0.033749 0.335882
vt 0.306097 0.025947
vt 0.322892 0.043311
vt 0.029271 0.043311
vt 0.046065 0.025947
vt 0.284587 0.015175
vt 0.067575 0.015175
vt 0.673628 0.320069
vt 0.357338 0.320069
vt 0.623989 0.015175
vt 0.645499 0.025947
vt 0.385467 0.025947
vt 0.406977 0.015175
vt 0.373151 0.335882
vt 0.361969 0.331251
vt 0.668997 0.331251
vt 0.657815 0.335882
vt 0.798979 0.153763
vt 0.800491 0.262909
vt 0.779813 0.262948
vt 0.778308 0.154256
vt 0.748942 0.151858
vt 0.747361 0.262738
vt 0.726595 0.262527
vt 0.728278 0.151507
vt 0.705868 0.016208
vt 0.729278 0.014576
vt 0.730695 0.035200
vt 0.707322 0.036833
vt 0.694175 0.262023
vt 0.698826 0.152901
vt 0.751297 0.035617
vt 0.774572 0.038174
vt 0.795251 0.037488
vt 0.725787 0.371235
vt 0.693293 0.368633
vt 0.799595 0.369478
vt 0.778935 0.368930
vt 0.746451 0.371309
vt 0.725794 0.741375
vt 0.706573 0.739566
vt 0.786334 0.740284
vt 0.765673 0.739551
vt 0.746451 0.741370
vt 0.487747 0.394812
vt 0.487747 0.678448
vt 0.467076 0.678448
vt 0.467076 0.394812
vt 0.443590 0.394812
vt 0.429340 0.678448
vt 0.408695 0.677411
vt 0.422946 0.393775
vt 0.444769 0.371356
vt 0.424124 0.370319
vt 0.511233 0.394812
vt 0.525483 0.678448
vt 0.229182 0.735910
vt 0.229182 0.982798
vt 0.218628 0.982798
vt 0.218628 0.735910
vt 0.252668 0.735910
vt 0.252668 0.982798
vt 0.195142 0.735910
vt 0.195142 0.982798
vt 0.301271 0.686576
vt 0.301082 0.604823
vt 0.327240 0.606274
vt 0.327240 0.688857
vt 0.271971 0.681439
vt 0.271574 0.604993
vt 0.357023 0.683392
vt 0.357354 0.606336
vt 0.382432 0.604915
vt 0.382828 0.681147
vt 0.357256 0.441096
vt 0.327152 0.441180
vt 0.327069 0.358601
vt 0.356857 0.364037
vt 0.381194 0.366258
vt 0.381590 0.442492
vt 0.270731 0.442520
vt 0.270335 0.366073
vt 0.301102 0.360908
vt 0.300995 0.442661
vt 0.357308 0.523711
vt 0.327306 0.523731
vt 0.382011 0.523698
vt 0.271153 0.523759
vt 0.300994 0.523744
vt 0.481016 0.378414
vt 0.481016 0.347955
vt 0.507159 0.348790
vt 0.506187 0.379217
vt 0.572308 0.347618
vt 0.572308 0.378061
vt 0.546152 0.378061
vt 0.547124 0.347618
vt 0.317140 0.735910
vt 0.317140 0.982798
vt 0.306586 0.982798
vt 0.306586 0.735910
vt 0.340626 0.735910
vt 0.340626 0.982798
vt 0.283100 0.735910
vt 0.283100 0.982798
vt 0.396788 0.986062
vt 0.396610 0.915941
vt 0.415219 0.917174
vt 0.415219 0.987949
vt 0.368556 0.986238
vt 0.368368 0.916020
vt 0.443259 0.987914
vt 0.443555 0.917253
vt 0.462167 0.916073
vt 0.461712 0.986082
vt 0.443729 0.775882
vt 0.415397 0.775838
vt 0.415502 0.705145
vt 0.443534 0.705088
vt 0.461985 0.706957
vt 0.462338 0.777088
vt 0.368544 0.776898
vt 0.368862 0.706746
vt 0.397073 0.706986
vt 0.396784 0.777047
vt 0.443631 0.846554
vt 0.415384 0.846519
vt 0.462354 0.846574
vt 0.368404 0.846460
vt 0.396650 0.846496
vt 0.056810 0.706538
vt 0.056810 0.988213
vt 0.046256 0.988213
vt 0.046256 0.706538
vt 0.080296 0.706538
vt 0.080296 0.988213
vt 0.022770 0.706538
vt 0.022770 0.988213
vt 0.144549 0.717733
vt 0.144549 0.982877
vt 0.133995 0.982886
vt 0.133995 0.717741
vt 0.168035 0.717715
vt 0.168035 0.982859
vt 0.110509 0.717760
vt 0.110509 0.982904
vt 0.837008 0.154198
vt 0.835458 0.262897
vt 0.814783 0.262827
vt 0.816350 0.153685
vt 0.887038 0.151471
vt 0.888674 0.262477
vt 0.867909 0.262713
vt 0.866372 0.151815
vt 0.908035 0.036810
vt 0.884677 0.035172
vt 0.886117 0.014615
vt 0.909475 0.016250
vt 0.916487 0.152869
vt 0.921094 0.261971
vt 0.864071 0.035561
vt 0.840797 0.038112
vt 0.820136 0.037420
vt 0.868772 0.371264
vt 0.836284 0.368880
vt 0.815617 0.369389
vt 0.889436 0.371199
vt 0.921933 0.368597
vt 0.868772 0.741330
vt 0.848693 0.739430
vt 0.828023 0.740118
vt 0.889427 0.741336
vt 0.909505 0.739446
vt 0.601359 0.393123
vt 0.601359 0.676759
vt 0.580688 0.676759
vt 0.580688 0.393123
vt 0.645490 0.392086
vt 0.659740 0.675722
vt 0.639095 0.676759
vt 0.624845 0.393123
vt 0.644311 0.368630
vt 0.623666 0.369667
vt 0.557203 0.393123
vt 0.542952 0.676759
vt 0.126352 0.351667
vt 0.135251 0.687029
vt 0.120190 0.687028
vt 0.113139 0.351667
vt 0.028722 0.687029
vt 0.037668 0.351667
vt 0.013653 0.687029
vt 0.024447 0.351667
vt 0.237574 0.351583
vt 0.245571 0.687113
vt 0.154104 0.687113
vt 0.162102 0.351583
vn -0.0157 0.0000 0.9999
vn 0.0157 -0.0000 0.9999
vn 0.0451 0.0000 -0.9990
vn -0.0451 0.0001 -0.9990
vn -0.0451 0.0000 -0.9990
vn 0.0451 -0.0002 -0.9990
vn 1.0000 0.0000 0.0032
vn 0.9992 -0.0000 -0.0409
vn 1.0000 0.0001 0.0032
vn -0.9992 -0.0000 -0.0409
vn -1.0000 -0.0000 0.0032
vn 0.5917 0.0000 -0.8062
vn 0.5917 0.0000 -0.8061
vn 0.8603 0.0000 -0.5098
vn -0.8603 -0.0000 -0.5097
vn -0.8603 0.0000 -0.5098
vn -0.5917 0.0000 -0.8061
vn 0.3827 0.0000 0.9239
vn 0.9239 0.0000 0.3827
vn -0.9239 0.0000 0.3827
vn -0.3827 0.0000 0.9239
vn 0.0000 -1.0000 -0.0000
vn 0.0000 1.0000 0.0000
vn 0.0000 -0.1061 0.9944
vn 0.0000 -0.0097 1.0000
vn 0.0000 0.0675 -0.9977
vn 0.0000 -0.0052 -1.0000
vn 1.0000 0.0000 0.0000
vn -1.0000 0.0000 0.0000
vn 0.0000 0.0911 -0.9958
vn 0.0000 -0.1425 0.9898
vn -0.0000 0.1117 0.9937
vn 0.0000 -0.0849 -0.9964
vn 0.0000 0.1296 0.9916
vn 0.0000 -0.0941 -0.9956
vn 0.0000 -0.0000 1.0000
vn 0.0000 -0.0502 -0.9987
vn -0.0000 0.9942 -0.1079
vn 0.0952 -0.1480 -0.9844
vn 0.0610 -0.1441 -0.9877
vn 0.0609 -0.1440 -0.9877
vn -0.0953 0.1160 0.9887
vn -0.0610 0.1119 0.9918
vn -0.0000 -0.9942 0.1079
vn 0.0610 0.1119 0.9918
vn 0.0953 0.1160 0.9887
vn -0.0610 -0.1440 -0.9877
vn -0.0952 -0.1480 -0.9844
vn -0.0609 -0.1440 -0.9877
vn 0.0000 0.1079 0.9942
vn 0.0000 -0.1401 -0.9901
vn 0.9838 -0.1780 0.0193
vn -0.9838 -0.1780 0.0193
vn 0.1075 -0.1073 -0.9884
vn 0.0699 -0.1076 -0.9917
vn 0.0700 -0.1076 -0.9917
vn -0.1075 0.1073 0.9884
vn -0.0699 0.1076 0.9917
vn 0.0699 0.1076 0.9917
vn 0.1075 0.1073 0.9884
vn -0.0700 -0.1076 -0.9917
vn -0.1075 -0.1073 -0.9884
vn -0.0699 -0.1076 -0.9917
vn 0.0000 -0.1079 -0.9942
vn 0.0000 0.0000 -1.0000
vn 0.0000 -0.0096 1.0000
vn 0.0000 -0.0048 -1.0000
vn 0.9997 -0.0240 0.0000
vn 0.9997 -0.0240 0.0001
vn 0.0000 0.1264 0.9920
vn -0.9997 -0.0240 0.0001
vn -0.9997 -0.0240 0.0000
vn 0.0000 -0.1318 -0.9913
usemtl MATERIAL_CHAIR_01_
s 1
f 1/1/1 2/2/2 3/3/2
f 3/3/2 4/4/1 1/1/1
f 5/5/3 6/6/4 7/7/5
f 7/7/5 8/8/6 5/5/3
f 9/9/7 10/10/8 11/11/8
f 11/11/8 12/12/9 9/9/7
f 13/13/10 14/14/11 15/15/11
f 15/15/11 16/16/10 13/13/10
f 5/5/3 8/8/6 17/17/12
f 17/17/12 18/18/13 5/5/3
f 18/19/13 17/20/12 19/21/14
f 19/21/14 20/22/14 18/19/13
f 20/22/14 19/21/14 11/11/8
f 11/11/8 10/10/8 20/22/14
f 13/13/10 16/16/10 21/23/15
f 21/23/15 22/24/16 13/13/10
f 22/24/16 21/23/15 23/25/17
f 23/25/17 24/26/17 22/24/16
f 24/27/17 23/28/17 7/7/5
f 7/7/5 6/6/4 24/27/17
f 3/3/2 2/2/2 25/29/18
f 25/29/18 26/30/18 3/3/2
f 26/30/19 25/29/19 9/9/7
f 9/9/7 12/12/9 26/30/19
f 15/15/11 14/14/11 27/31/20
f 27/31/20 28/32/20 15/15/11
f 28/32/21 27/31/21 1/1/1
f 1/1/1 4/4/1 28/32/21
f 20/33/22 10/34/22 13/35/22
f 13/35/22 22/36/22 20/33/22
f 15/37/23 28/38/23 26/39/23
f 26/39/23 12/40/23 15/37/23
f 16/41/23 15/37/23 12/40/23
f 12/40/23 11/42/23 16/41/23
f 26/39/23 28/38/23 4/43/23
f 4/43/23 3/44/23 26/39/23
f 23/45/23 21/46/23 19/47/23
f 19/47/23 17/48/23 23/45/23
f 21/46/23 16/41/23 11/42/23
f 11/42/23 19/47/23 21/46/23
f 7/49/23 23/45/23 17/48/23
f 17/48/23 8/50/23 7/49/23
f 9/51/22 14/52/22 13/35/22
f 13/35/22 10/34/22 9/51/22
f 5/53/22 18/54/22 24/55/22
f 24/55/22 6/56/22 5/53/22
f 18/54/22 20/33/22 22/36/22
f 22/36/22 24/55/22 18/54/22
f 1/57/22 27/58/22 25/59/22
f 25/59/22 2/60/22 1/57/22
f 27/58/22 14/52/22 9/51/22
f 9/51/22 25/59/22 27/58/22
f 29/61/24 30/62/25 31/63/25
f 31/63/25 32/64/24 29/61/24
f 33/65/26 34/66/27 35/67/27
f 35/67/27 36/68/26 33/65/26
f 37/69/22 38/70/22 39/71/22
f 39/71/22 40/72/22 37/69/22
f 36/68/28 35/67/28 30/73/28
f 30/73/28 29/74/28 36/68/28
f 34/66/29 33/65/29 32/64/29
f 32/64/29 31/63/29 34/66/29
f 39/71/28 36/68/28 29/74/28
f 29/74/28 40/72/28 39/71/28
f 38/75/30 33/65/26 36/68/26
f 36/68/26 39/71/30 38/75/30
f 38/75/29 37/76/29 32/64/29
f 32/64/29 33/65/29 38/75/29
f 40/77/31 29/61/24 32/64/24
f 32/64/24 37/76/31 40/77/31
f 35/67/28 41/78/28 42/79/28
f 42/79/28 30/73/28 35/67/28
f 30/62/25 42/80/32 43/81/32
f 43/81/32 31/63/25 30/62/25
f 44/82/29 34/66/29 31/63/29
f 31/63/29 43/81/29 44/82/29
f 34/66/27 44/82/33 41/78/33
f 41/78/33 35/67/27 34/66/27
f 41/78/28 45/83/28 46/84/28
f 46/84/28 42/79/28 41/78/28
f 42/80/32 46/85/34 47/86/34
f 47/86/34 43/81/32 42/80/32
f 48/87/29 44/82/29 43/81/29
f 43/81/29 47/86/29 48/87/29
f 44/82/33 48/87/35 45/83/35
f 45/83/35 41/78/33 44/82/33
f 49/88/36 50/89/36 51/90/36
f 51/90/36 52/91/36 49/88/36
f 53/92/37 54/93/37 55/94/37
f 55/94/37 56/95/37 53/92/37
f 52/96/22 53/92/22 56/95/22
f 56/95/22 49/97/22 52/96/22
f 56/98/28 55/99/28 50/89/28
f 50/89/28 49/88/28 56/98/28
f 53/92/29 52/91/29 51/90/29
f 51/90/29 54/93/29 53/92/29
f 57/100/22 58/101/22 59/102/22
f 59/102/22 60/103/22 57/100/22
f 61/104/29 62/105/29 58/101/29
f 58/101/29 57/100/29 61/104/29
f 63/106/28 60/103/28 59/102/28
f 59/102/28 64/107/28 63/106/28
f 65/108/38 66/109/38 67/110/38
f 67/110/38 68/111/38 65/108/38
f 69/112/39 70/113/40 66/109/41
f 66/109/41 65/108/39 69/112/39
f 71/114/42 68/111/42 67/110/43
f 67/110/43 72/115/43 71/114/42
f 72/115/44 70/116/44 69/117/44
f 69/117/44 71/114/44 72/115/44
f 73/118/45 74/119/45 75/120/46
f 75/120/46 76/121/46 73/118/45
f 76/121/44 77/122/44 78/123/44
f 78/123/44 73/118/44 76/121/44
f 78/124/47 77/125/48 79/126/48
f 79/126/48 80/127/49 78/124/47
f 80/127/38 79/126/38 75/120/38
f 75/120/38 74/119/38 80/127/38
f 81/128/50 82/129/50 74/119/45
f 74/119/45 73/118/45 81/128/50
f 73/118/44 78/123/44 83/130/44
f 83/130/44 81/128/44 73/118/44
f 83/131/51 78/124/47 80/127/49
f 80/127/49 84/132/51 83/131/51
f 84/132/38 80/127/38 74/119/38
f 74/119/38 82/129/38 84/132/38
f 72/115/43 67/110/43 82/129/50
f 82/129/50 81/128/50 72/115/43
f 81/128/44 83/130/44 70/116/44
f 70/116/44 72/115/44 81/128/44
f 70/113/40 83/131/51 84/132/51
f 84/132/51 66/109/41 70/113/40
f 66/109/38 84/132/38 82/129/38
f 82/129/38 67/110/38 66/109/38
f 69/133/52 65/134/52 68/135/52
f 68/135/52 71/136/52 69/133/52
f 76/137/53 75/138/53 79/139/53
f 79/139/53 77/140/53 76/137/53
f 85/141/22 86/142/22 87/143/22
f 87/143/22 88/144/22 85/141/22
f 89/145/29 90/146/29 86/142/29
f 86/142/29 85/141/29 89/145/29
f 91/147/28 88/144/28 87/143/28
f 87/143/28 92/148/28 91/147/28
f 93/149/38 94/150/38 95/151/38
f 95/151/38 96/152/38 93/149/38
f 97/153/54 98/154/55 94/150/56
f 94/150/56 93/149/54 97/153/54
f 99/155/57 96/152/57 95/151/58
f 95/151/58 100/156/58 99/155/57
f 100/156/44 98/157/44 97/158/44
f 97/158/44 99/155/44 100/156/44
f 101/159/59 102/160/59 103/161/60
f 103/161/60 104/162/60 101/159/59
f 104/162/44 105/163/44 106/164/44
f 106/164/44 101/159/44 104/162/44
f 106/165/61 105/166/62 107/167/62
f 107/167/62 108/168/63 106/165/61
f 108/168/38 107/167/38 103/161/38
f 103/161/38 102/160/38 108/168/38
f 109/169/50 110/170/50 102/160/59
f 102/160/59 101/159/59 109/169/50
f 101/159/44 106/164/44 111/171/44
f 111/171/44 109/169/44 101/159/44
f 111/172/64 106/165/61 108/168/63
f 108/168/63 112/173/64 111/172/64
f 112/173/38 108/168/38 102/160/38
f 102/160/38 110/170/38 112/173/38
f 100/156/58 95/151/58 110/170/50
f 110/170/50 109/169/50 100/156/58
f 109/169/44 111/171/44 98/157/44
f 98/157/44 100/156/44 109/169/44
f 98/154/55 111/172/64 112/173/64
f 112/173/64 94/150/56 98/154/55
f 94/150/38 112/173/38 110/170/38
f 110/170/38 95/151/38 94/150/38
f 113/174/22 114/175/22 115/176/22
f 115/176/22 116/177/22 113/174/22
f 117/178/65 118/179/65 114/175/65
f 114/175/65 113/174/65 117/178/65
f 119/180/36 116/177/36 115/176/36
f 115/176/36 120/181/36 119/180/36
f 121/182/22 122/183/22 123/184/22
f 123/184/22 124/185/22 121/182/22
f 125/186/36 126/187/36 122/183/36
f 122/183/36 121/182/36 125/186/36
f 127/188/65 124/185/65 123/184/65
f 123/184/65 128/189/65 127/188/65
f 129/190/24 130/191/66 131/192/66
f 131/192/66 132/193/24 129/190/24
f 133/194/26 134/195/67 135/196/27
f 135/196/27 136/197/26 133/194/26
f 137/198/22 138/199/22 139/200/22
f 139/200/22 140/201/22 137/198/22
f 136/197/28 135/196/28 130/191/28
f 130/191/28 129/190/28 136/197/28
f 134/195/29 133/194/29 132/202/29
f 132/202/29 131/203/29 134/195/29
f 139/204/28 136/197/28 129/190/28
f 129/190/28 140/205/28 139/204/28
f 138/199/30 133/194/26 136/197/26
f 136/197/26 139/204/30 138/199/30
f 138/199/29 137/198/29 132/202/29
f 132/202/29 133/194/29 138/199/29
f 140/205/31 129/190/24 132/193/24
f 132/193/24 137/206/31 140/205/31
f 135/196/28 141/207/28 142/208/28
f 142/208/28 130/191/28 135/196/28
f 130/191/66 142/208/32 143/209/32
f 143/209/32 131/192/66 130/191/66
f 144/210/29 134/195/29 131/203/29
f 131/203/29 143/211/29 144/210/29
f 134/195/67 144/210/33 141/207/33
f 141/207/33 135/196/27 134/195/67
f 141/207/28 145/212/28 146/213/28
f 146/213/28 142/208/28 141/207/28
f 142/208/32 146/213/34 147/214/34
f 147/214/34 143/209/32 142/208/32
f 148/215/29 144/210/29 143/211/29
f 143/211/29 147/216/29 148/215/29
f 144/210/33 148/215/35 145/212/35
f 145/212/35 141/207/33 144/210/33
f 149/217/36 150/218/36 151/219/36
f 151/219/36 152/220/36 149/217/36
f 153/221/37 154/222/37 155/223/37
f 155/223/37 156/224/37 153/221/37
f 152/225/22 153/221/22 156/224/22
f 156/224/22 149/226/22 152/225/22
f 156/224/28 155/223/28 150/218/28
f 150/218/28 149/217/28 156/224/28
f 153/227/29 152/220/29 151/219/29
f 151/219/29 154/228/29 153/227/29
f 157/229/68 158/230/68 159/231/68
f 159/231/69 160/232/69 157/229/69
f 160/232/70 159/231/70 161/233/70
f 161/233/70 162/234/70 160/232/70
f 163/235/71 164/236/71 162/234/71
f 162/234/72 161/233/72 163/235/72
f 164/237/73 163/238/73 158/239/73
f 158/239/73 157/240/73 164/237/73
