# Blender v2.93.5 OBJ File: ''
# www.blender.org
mtllib untitled.mtl
o Cube.001
v 3.000000 1.623065 1.686810
v -3.000000 1.623066 1.686810
v -3.000000 1.623066 -1.686810
v 3.000000 1.623065 -1.686810
v 3.000000 1.799445 1.686810
v 3.000000 1.799445 -1.686810
v -3.000000 1.799446 -1.686810
v -3.000002 1.799446 1.686810
v -2.505612 -0.647382 1.493679
v -2.779509 -0.647382 1.493679
v -2.779509 -0.647382 1.335501
v -2.505612 -0.647382 1.335501
v -2.505612 1.650174 1.493679
v -2.505612 1.650174 1.335501
v -2.779509 1.650174 1.335501
v -2.779509 1.650174 1.493679
v -2.505612 -0.647382 -1.331310
v -2.779509 -0.647382 -1.331310
v -2.779509 -0.647382 -1.489488
v -2.505612 -0.647382 -1.489488
v -2.505612 1.650174 -1.331310
v -2.505612 1.650174 -1.489488
v -2.779509 1.650174 -1.489488
v -2.779509 1.650174 -1.331310
v 2.706048 -0.647382 1.493679
v 2.432154 -0.647382 1.493679
v 2.432154 -0.647382 1.335498
v 2.706048 -0.647382 1.335498
v 2.706048 1.650174 1.493679
v 2.706048 1.650174 1.335498
v 2.432154 1.650174 1.335498
v 2.432154 1.650174 1.493679
v 2.706048 -0.647382 -1.331310
v 2.432154 -0.647382 -1.331310
v 2.432154 -0.647382 -1.489488
v 2.706048 -0.647382 -1.489488
v 2.706048 1.650174 -1.331310
v 2.706048 1.650174 -1.489488
v 2.432154 1.650174 -1.489488
v 2.432154 1.650174 -1.331310
v 2.710143 1.446687 1.496289
v -2.779629 1.446687 1.496289
v -2.779632 1.623066 1.496289
v 2.710140 1.623065 1.496289
v 2.710143 1.446687 1.548057
v 2.710140 1.623065 1.548057
v -2.779632 1.623066 1.548057
v -2.779629 1.446687 1.548057
v 2.710140 1.446687 -1.542519
v -2.779629 1.446687 -1.542519
v -2.779632 1.623066 -1.542519
v 2.710140 1.623065 -1.542519
v 2.710140 1.446687 -1.490751
v 2.710140 1.623065 -1.490751
v -2.779632 1.623066 -1.490754
v -2.779629 1.446687 -1.490751
v 2.710140 1.446687 -1.542519
v 2.710143 1.446687 1.548057
v 2.710140 1.623065 1.548057
v 2.710143 1.623065 -1.542519
v 2.761908 1.446687 -1.542519
v 2.761908 1.623065 -1.542519
v 2.761908 1.623065 1.548057
v 2.761908 1.446687 1.548057
v -2.831397 1.446687 -1.542519
v -2.831397 1.446687 1.548057
v -2.831397 1.623066 1.548057
v -2.831397 1.623066 -1.542519
v -2.779629 1.446687 -1.542519
v -2.779629 1.623066 -1.542519
v -2.779632 1.623066 1.548057
v -2.779629 1.446687 1.548057
vt 0.006860 0.216846
vt 0.679669 0.216846
vt 0.679669 0.595146
vt 0.006860 0.595146
vt 0.006860 0.993225
vt 0.006860 0.614925
vt 0.679669 0.614925
vt 0.679669 0.993225
vt 0.970557 0.263494
vt 0.995582 0.263494
vt 0.995586 0.734032
vt 0.970559 0.734032
vt 0.995586 0.998611
vt 0.970559 0.998611
vt 0.970557 -0.001075
vt 0.995583 -0.001075
vt 0.540767 0.185684
vt 0.540767 0.216397
vt 0.523030 0.216397
vt 0.523030 0.185684
vt 0.957984 0.310775
vt 0.700348 0.310775
vt 0.700348 0.293038
vt 0.957984 0.293038
vt 0.957984 0.262324
vt 0.700348 0.262325
vt 0.700348 0.244587
vt 0.957984 0.244587
vt 0.700348 0.213874
vt 0.957984 0.213874
vt 0.558953 0.185684
vt 0.558953 0.216397
vt 0.541216 0.216397
vt 0.541216 0.185684
vt 0.957984 0.408126
vt 0.700348 0.408126
vt 0.700348 0.390388
vt 0.957984 0.390388
vt 0.957984 0.359675
vt 0.700348 0.359675
vt 0.700348 0.341938
vt 0.957984 0.341937
vt 0.700348 0.311224
vt 0.957984 0.311224
vt 0.577140 0.185684
vt 0.577140 0.216397
vt 0.559402 0.216397
vt 0.559402 0.185684
vt 0.522581 0.216397
vt 0.264945 0.216397
vt 0.264945 0.198659
vt 0.522581 0.198659
vt 0.522581 0.167946
vt 0.264945 0.167946
vt 0.264945 0.150208
vt 0.522581 0.150208
vt 0.264945 0.119495
vt 0.522581 0.119495
vt 0.595326 0.185684
vt 0.595326 0.216397
vt 0.577589 0.216397
vt 0.577589 0.185684
vt 0.264496 0.216397
vt 0.006860 0.216397
vt 0.006860 0.198659
vt 0.264496 0.198659
vt 0.264496 0.167946
vt 0.006860 0.167946
vt 0.006860 0.150208
vt 0.264496 0.150208
vt 0.006860 0.119495
vt 0.264496 0.119495
vt 0.767347 0.408638
vt 0.767346 0.993225
vt 0.748564 0.993225
vt 0.748564 0.408638
vt 0.777550 0.408575
vt 0.796332 0.408575
vt 0.796332 0.993162
vt 0.777549 0.993162
vt 0.719130 0.408638
vt 0.719130 0.993225
vt 0.700348 0.993225
vt 0.700348 0.408638
vt 0.729333 0.408575
vt 0.748115 0.408575
vt 0.748115 0.993162
vt 0.729333 0.993162
vt 0.868525 0.993221
vt 0.868526 0.647589
vt 0.888252 0.647589
vt 0.888250 0.993221
vt 0.862492 0.993225
vt 0.842766 0.993225
vt 0.842768 0.647593
vt 0.862494 0.647593
vt 0.656008 0.216397
vt 0.636229 0.216397
vt 0.636229 0.210592
vt 0.656008 0.210592
vt 0.595775 0.210592
vt 0.615553 0.210592
vt 0.615553 0.216397
vt 0.595775 0.216397
vt 0.822592 0.993217
vt 0.822539 0.647585
vt 0.842264 0.647582
vt 0.842317 0.993214
vt 0.816559 0.993222
vt 0.796834 0.993225
vt 0.796781 0.647593
vt 0.816506 0.647590
vt 0.676235 0.216397
vt 0.656457 0.216397
vt 0.656457 0.210592
vt 0.676235 0.210592
vt 0.616002 0.210592
vt 0.635780 0.210592
vt 0.635780 0.216397
vt 0.616002 0.216397
vn -0.0000 -1.0000 0.0000
vn 0.0000 1.0000 -0.0000
vn 0.0000 0.0000 1.0000
vn -1.0000 -0.0000 -0.0000
vn -0.0000 0.0000 -1.0000
vn 1.0000 -0.0000 -0.0000
usemtl Material.004
s 1
f 1/1/1 2/2/1 3/3/1 4/4/1
f 5/5/2 6/6/2 7/7/2 8/8/2
f 1/9/3 5/10/3 8/11/3 2/12/3
f 2/12/4 8/11/4 7/13/4 3/14/4
f 3/3/5 7/7/5 6/6/5 4/4/5
f 5/10/6 1/9/6 4/15/6 6/16/6
f 9/17/1 10/18/1 11/19/1 12/20/1
f 13/21/6 9/22/6 12/23/6 14/24/6
f 15/25/4 11/26/4 10/27/4 16/28/4
f 16/28/3 10/27/3 9/29/3 13/30/3
f 14/24/5 12/23/5 11/26/5 15/25/5
f 17/31/1 18/32/1 19/33/1 20/34/1
f 21/35/6 17/36/6 20/37/6 22/38/6
f 23/39/4 19/40/4 18/41/4 24/42/4
f 24/42/3 18/41/3 17/43/3 21/44/3
f 22/38/5 20/37/5 19/40/5 23/39/5
f 25/45/1 26/46/1 27/47/1 28/48/1
f 29/49/6 25/50/6 28/51/6 30/52/6
f 31/53/4 27/54/4 26/55/4 32/56/4
f 32/56/3 26/55/3 25/57/3 29/58/3
f 30/52/5 28/51/5 27/54/5 31/53/5
f 33/59/1 34/60/1 35/61/1 36/62/1
f 37/63/6 33/64/6 36/65/6 38/66/6
f 39/67/4 35/68/4 34/69/4 40/70/4
f 40/70/3 34/69/3 33/71/3 37/72/3
f 38/66/5 36/65/5 35/68/5 39/67/5
f 41/73/5 42/74/5 43/75/5 44/76/5
f 45/77/3 46/78/3 47/79/3 48/80/3
f 42/74/1 41/73/1 45/77/1 48/80/1
f 49/81/5 50/82/5 51/83/5 52/84/5
f 53/85/3 54/86/3 55/87/3 56/88/3
f 50/82/1 49/81/1 53/85/1 56/88/1
f 57/89/4 58/90/4 59/91/4 60/92/4
f 61/93/6 62/94/6 63/95/6 64/96/6
f 59/97/3 58/98/3 64/99/3 63/100/3
f 58/90/1 57/89/1 61/93/1 64/96/1
f 57/101/5 60/102/5 62/103/5 61/104/5
f 65/105/4 66/106/4 67/107/4 68/108/4
f 69/109/6 70/110/6 71/111/6 72/112/6
f 67/113/3 66/114/3 72/115/3 71/116/3
f 66/106/1 65/105/1 69/109/1 72/112/1
f 65/117/5 68/118/5 70/119/5 69/120/5
